<?xml version="1.0" encoding="UTF-8"?>
<svg width="508px" height="508px" viewBox="0 0 508 508" version="1.1" xmlns="http://www.w3.org/2000/svg" xmlns:xlink="http://www.w3.org/1999/xlink">
    <title>back</title>
    <g id="middleware" stroke="none" stroke-width="1" fill="none" fill-rule="evenodd">
        <g id="polygons" transform="translate(80.000000, 79.000000)">
            <polygon id="Triangle" fill="#1788B3" transform="translate(67.000000, 214.000000) rotate(-270.000000) translate(-67.000000, -214.000000) " points="67 180 135 248 -1 248"></polygon>
            <polygon id="Triangle" fill="#1788B3" transform="translate(67.000000, 282.000000) rotate(-90.000000) translate(-67.000000, -282.000000) " points="67 248 135 316 -1 316"></polygon>
            <polygon id="Triangle" fill="#CB0806" transform="translate(313.000000, 204.000000) rotate(-90.000000) translate(-313.000000, -204.000000) " points="313 170 381 238 245 238"></polygon>
            <polygon id="Triangle" fill="#FF0000" transform="translate(313.000000, 68.000000) rotate(-90.000000) translate(-313.000000, -68.000000) " points="313 34 381 102 245 102"></polygon>
            <polygon id="Triangle" fill="#E10709" transform="translate(313.000000, 136.000000) rotate(-270.000000) translate(-313.000000, -136.000000) " points="313 102 381 170 245 170"></polygon>
            <polygon id="Triangle" fill="#A7080A" transform="translate(313.000000, 282.000000) rotate(-270.000000) translate(-313.000000, -282.000000) " points="313 248 381 316 245 316"></polygon>
            <polygon id="Triangle" fill="#109ED3" transform="translate(67.000000, 146.000000) rotate(-90.000000) translate(-67.000000, -146.000000) " points="67 112 135 180 -1 180"></polygon>
            <polygon id="Triangle" fill="#10B0EC" transform="translate(67.000000, 68.000000) rotate(-270.000000) translate(-67.000000, -68.000000) " points="67 34 135 102 -1 102"></polygon>
            <polygon id="Triangle" fill="#D9BA06" transform="translate(179.124892, 223.249783) rotate(-45.000000) translate(-179.124892, -223.249783) " points="179.124892 189.249783 247.124892 257.249783 111.124892 257.249783"></polygon>
            <polygon id="Triangle" fill="#F4D002" transform="translate(227.124892, 175.249783) rotate(-225.000000) translate(-227.124892, -175.249783) " points="227.124892 141.249783 295.124892 209.249783 159.124892 209.249783"></polygon>
            <polygon id="Triangle" fill="#F8DA2C" transform="translate(275.000000, 127.124892) rotate(-45.000000) translate(-275.000000, -127.124892) " points="275 93.1248917 343 161.124892 207 161.124892"></polygon>
            <polygon id="Triangle" fill="#279D34" transform="translate(120.955589, 135.934027) rotate(-135.000000) translate(-120.955589, -135.934027) " points="120.955589 101.934027 188.955589 169.934027 52.955589 169.934027"></polygon>
            <polygon id="Triangle" fill="#32B240" transform="translate(72.872328, 87.850766) rotate(-315.000000) translate(-72.872328, -87.850766) " points="72.8723279 53.850766 140.872328 121.850766 4.87232789 121.850766"></polygon>
            <polygon id="Triangle" fill="#2A8735" transform="translate(169.000000, 184.000000) rotate(-315.000000) translate(-169.000000, -184.000000) " points="169 150 237 218 101 218"></polygon>
        </g>
    </g>
</svg>