<?xml version="1.0" standalone="no"?>
<!DOCTYPE svg PUBLIC "-//W3C//DTD SVG 20010904//EN"
 "http://www.w3.org/TR/2001/REC-SVG-20010904/DTD/svg10.dtd">
<svg version="1.0" xmlns="http://www.w3.org/2000/svg"
 width="482.000000pt" height="482.000000pt" viewBox="0 0 482.000000 482.000000"
 preserveAspectRatio="xMidYMid meet">
<metadata>
Created by potrace 1.11, written by Peter Selinger 2001-2013
</metadata>
<g transform="translate(0.000000,482.000000) scale(0.100000,-0.100000)"
fill="#000000" stroke="none">
<path d="M161 4803 c-53 -19 -116 -80 -141 -136 -18 -40 -19 -111 -19 -1907 0
-1766 1 -1869 18 -1950 41 -192 123 -354 249 -492 54 -58 190 -168 209 -168 6
0 16 -6 22 -14 17 -20 167 -82 264 -108 l82 -23 1535 -2 c1497 -3 1537 -2
1631 17 106 22 200 55 269 94 25 14 54 30 65 35 63 28 213 168 284 265 70 95
148 266 165 362 3 16 10 52 15 79 14 68 14 3042 0 3110 -5 28 -12 63 -15 79
-16 93 -77 230 -148 336 -70 105 -238 270 -275 270 -6 0 -11 4 -11 8 0 13
-155 88 -230 111 -163 52 -78 50 -2070 50 -1650 0 -1860 -2 -1899 -16z"/>
</g>
</svg>
